<svg width="32" height="35" viewBox="0 0 32 35" fill="none" xmlns="http://www.w3.org/2000/svg">
<path d="M0.0834962 4.94986C0.0834962 4.37597 0.106294 3.79491 0.151889 3.20667C0.197483 2.61844 0.326669 2.08759 0.539445 1.61413C0.752221 1.14068 1.07898 0.753303 1.51973 0.452011C1.94529 0.150721 2.54562 7.44143e-05 3.32073 7.4423e-05C4.09584 7.44318e-05 4.70378 0.150721 5.14453 0.452011C5.57008 0.753303 5.88924 1.14068 6.10202 1.61413C6.3148 2.08759 6.44398 2.61844 6.48958 3.20667C6.53517 3.79491 6.55797 4.37597 6.55797 4.94986L6.55797 10.0718L12.7589 10.0718L12.7589 7.36019C12.7589 6.7863 12.7817 6.21241 12.8273 5.63853C12.8577 5.05029 12.9792 4.53379 13.192 4.08903C13.3896 3.62992 13.7012 3.25689 14.1267 2.96995C14.5371 2.683 15.1146 2.53953 15.8593 2.53953C16.6192 2.53953 17.2044 2.683 17.6147 2.96995C18.0251 3.25689 18.3366 3.62992 18.5494 4.08903C18.747 4.53379 18.8686 5.05029 18.9142 5.63853C18.9446 6.21241 18.9598 6.7863 18.9598 7.36019L18.9598 10.0718L25.5254 10.0718L25.5254 4.94986C25.5254 4.37597 25.5482 3.79491 25.5938 3.20667C25.6394 2.61844 25.7686 2.08759 25.9814 1.61414C26.179 1.14068 26.4981 0.753303 26.9389 0.452011C27.3644 0.150721 27.9572 7.47004e-05 28.7171 7.47089e-05C29.5074 7.47178e-05 30.1229 0.157894 30.5637 0.473532C31.0044 0.774824 31.3312 1.1622 31.544 1.63566C31.7567 2.10911 31.8859 2.63996 31.9315 3.2282C31.9771 3.81643 31.9999 4.39032 31.9999 4.94986L31.9999 13.386C31.9999 14.1895 31.8479 14.8136 31.544 15.2583C31.24 15.6887 30.8448 16.0044 30.3585 16.2052C29.8569 16.4061 29.2946 16.5281 28.6715 16.5711C28.0484 16.5998 27.41 16.6141 26.7565 16.6141L5.32691 16.6141C4.67338 16.6141 4.03505 16.5998 3.41192 16.5711C2.78879 16.5281 2.23405 16.4061 1.74771 16.2052C1.24617 16.0044 0.843411 15.6887 0.539445 15.2583C0.235479 14.8136 0.0834961 14.1895 0.0834961 13.386L0.0834962 4.94986Z" fill="#FAFBB7"/>
<path d="M8.81881 25.4322C8.81881 25.5374 8.81184 25.6624 8.79791 25.807C8.78398 25.9451 8.72825 26.0799 8.63073 26.2114C8.54017 26.3364 8.39389 26.4449 8.19188 26.5369C7.98987 26.629 7.70427 26.675 7.33507 26.675H3.17644V27.6219C3.17644 27.7798 3.19734 27.9442 3.23914 28.1151C3.28093 28.2861 3.35059 28.4439 3.44811 28.5886C3.5526 28.7333 3.68844 28.8516 3.85562 28.9437C4.0228 29.0357 4.22829 29.0818 4.4721 29.0818C4.75073 29.0818 4.96319 29.0522 5.10948 28.993C5.26272 28.9272 5.38114 28.8483 5.46474 28.7563C5.55529 28.6642 5.6354 28.5656 5.70506 28.4604C5.77472 28.3551 5.86527 28.2565 5.97673 28.1644C6.09515 28.0724 6.25536 27.9968 6.45737 27.9376C6.66635 27.8718 6.95195 27.8389 7.31418 27.8389C7.48832 27.8389 7.65551 27.8521 7.81572 27.8784C7.9829 27.9047 8.12919 27.954 8.25457 28.0264C8.37996 28.0987 8.48096 28.2006 8.55759 28.3321C8.63421 28.4571 8.67252 28.6215 8.67252 28.8253C8.67252 29.2527 8.52972 29.6111 8.24412 29.9005C7.95852 30.1832 7.59978 30.4101 7.16789 30.5811C6.73601 30.752 6.26581 30.8737 5.7573 30.946C5.25576 31.0183 4.78556 31.0545 4.34671 31.0545C3.76854 31.0479 3.21824 30.9789 2.6958 30.8474C2.17336 30.7159 1.71012 30.5054 1.3061 30.2161C0.909048 29.9268 0.5921 29.5487 0.35526 29.0818C0.11842 28.6149 0 28.0428 0 27.3655V25.0574C0 24.4327 0.0766247 23.9033 0.229874 23.4693C0.390089 23.0353 0.595583 22.6737 0.846355 22.3843C1.09713 22.095 1.37924 21.8714 1.69271 21.7136C2.00617 21.5492 2.32312 21.4275 2.64355 21.3486C2.96398 21.2697 3.267 21.2204 3.5526 21.2007C3.84517 21.1809 4.09594 21.1711 4.30492 21.1711C5.00847 21.1711 5.60754 21.2303 6.10211 21.3486C6.60366 21.467 7.02161 21.6215 7.35597 21.8122C7.69033 22.0029 7.95504 22.2232 8.15008 22.4731C8.34513 22.723 8.49141 22.9827 8.58893 23.2523C8.68646 23.5154 8.74915 23.785 8.77701 24.0611C8.80488 24.3308 8.81881 24.5839 8.81881 24.8207V25.4322ZM3.17644 25.1955H5.78865C5.78865 24.8864 5.7782 24.6135 5.7573 24.3768C5.74337 24.1335 5.69113 23.9296 5.60057 23.7652C5.51698 23.6008 5.38114 23.4759 5.19307 23.3904C5.01195 23.3049 4.75073 23.2622 4.4094 23.2622C4.1238 23.2622 3.89741 23.3049 3.73023 23.3904C3.57001 23.4759 3.44811 23.5844 3.36452 23.7159C3.28093 23.8409 3.22869 23.9757 3.20779 24.1203C3.18689 24.265 3.17644 24.3932 3.17644 24.505V25.1955Z" fill="#FAFBB7"/>
<path d="M19.7901 28.8056C19.7901 29.0883 19.7727 29.3645 19.7378 29.6341C19.703 29.9037 19.6264 30.1438 19.508 30.3542C19.3965 30.5646 19.2328 30.7356 19.0169 30.8671C18.8079 30.992 18.5223 31.0545 18.1601 31.0545C17.8048 31.0545 17.5227 30.992 17.3137 30.8671C17.1047 30.7356 16.9445 30.5646 16.8331 30.3542C16.7216 30.1438 16.6485 29.9037 16.6136 29.6341C16.5858 29.3645 16.5718 29.0883 16.5718 28.8056V24.9587C16.5718 24.7746 16.5614 24.5938 16.5405 24.4162C16.5266 24.2387 16.4882 24.0842 16.4256 23.9526C16.3629 23.8146 16.2688 23.7061 16.1434 23.6271C16.025 23.5417 15.8613 23.4989 15.6523 23.4989C15.3667 23.4989 15.1369 23.5877 14.9627 23.7652C14.7886 23.9428 14.6493 24.1861 14.5448 24.4951C14.4472 24.8042 14.3811 25.1692 14.3462 25.59C14.3114 26.0043 14.294 26.4514 14.294 26.9315V28.8056C14.294 29.0883 14.2766 29.3645 14.2417 29.6341C14.2069 29.9037 14.1303 30.1438 14.0119 30.3542C13.9004 30.5646 13.7367 30.7356 13.5208 30.8671C13.3118 30.992 13.0262 31.0545 12.664 31.0545C12.3087 31.0545 12.0266 30.992 11.8176 30.8671C11.6086 30.7356 11.4484 30.5646 11.337 30.3542C11.2255 30.1438 11.1524 29.9037 11.1175 29.6341C11.0897 29.3645 11.0758 29.0883 11.0758 28.8056V23.42C11.0758 23.1372 11.0862 22.8644 11.1071 22.6013C11.128 22.3317 11.1907 22.095 11.2952 21.8911C11.3997 21.6807 11.5564 21.513 11.7654 21.3881C11.9813 21.2566 12.2809 21.1908 12.664 21.1908C13.0471 21.1908 13.3466 21.2533 13.5626 21.3782C13.7785 21.4966 13.9387 21.6413 14.0432 21.8122C14.1547 21.9832 14.2243 22.164 14.2522 22.3547C14.2801 22.5454 14.294 22.7098 14.294 22.8479C14.3497 22.6572 14.4368 22.4632 14.5552 22.266C14.6736 22.0687 14.8234 21.8911 15.0045 21.7333C15.1926 21.5755 15.4155 21.4473 15.6732 21.3486C15.931 21.2434 16.2305 21.1908 16.5718 21.1908C16.955 21.1908 17.3381 21.25 17.7212 21.3684C18.1043 21.4867 18.4491 21.684 18.7556 21.9602C19.0621 22.2364 19.3094 22.598 19.4975 23.0452C19.6926 23.4923 19.7901 24.0447 19.7901 24.7023V28.8056Z" fill="#FAFBB7"/>
<path d="M30.636 31.3504C30.636 31.9422 30.5489 32.442 30.3747 32.8497C30.2076 33.2574 29.9916 33.5961 29.7269 33.8657C29.4622 34.1353 29.1662 34.3457 28.8388 34.4969C28.5183 34.6482 28.2014 34.76 27.8879 34.8323C27.5814 34.9112 27.2993 34.9572 27.0416 34.9704C26.7838 34.9901 26.5888 35 26.4564 35C25.9618 35 25.4673 34.9671 24.9727 34.9014C24.4781 34.8356 24.0253 34.7139 23.6143 34.5364C23.2103 34.3589 22.8725 34.1188 22.6008 33.8163C22.3361 33.5139 22.1863 33.1259 22.1515 32.6524C22.1515 32.5735 22.1654 32.4847 22.1933 32.3861C22.2212 32.2875 22.2839 32.1921 22.3814 32.1001C22.4789 32.0146 22.6252 31.939 22.8202 31.8732C23.0153 31.814 23.28 31.7844 23.6143 31.7844C24.0184 31.7844 24.3283 31.814 24.5443 31.8732C24.7602 31.939 24.9204 32.0146 25.0249 32.1001C25.1294 32.1921 25.1956 32.2875 25.2235 32.3861C25.2583 32.4913 25.2931 32.5867 25.328 32.6722C25.3837 32.8102 25.4916 32.9056 25.6519 32.9582C25.819 33.0174 26.0454 33.047 26.331 33.047C26.5888 33.047 26.7908 32.9911 26.9371 32.8793C27.0903 32.7675 27.2053 32.6327 27.2819 32.4749C27.3585 32.3236 27.4073 32.1658 27.4282 32.0014C27.4491 31.8436 27.4595 31.7121 27.4595 31.6069V29.3974C27.3968 29.5947 27.3063 29.792 27.1878 29.9892C27.0764 30.1865 26.9301 30.3641 26.749 30.5219C26.5679 30.6797 26.3485 30.8079 26.0907 30.9066C25.8399 31.0052 25.5439 31.0545 25.2026 31.0545C24.8194 31.0545 24.4363 30.9953 24.0532 30.877C23.6701 30.7586 23.3218 30.5646 23.0083 30.295C22.7018 30.0188 22.451 29.6572 22.256 29.21C22.061 28.7628 21.9634 28.2072 21.9634 27.543V24.6826C21.9634 24.0316 22.061 23.4858 22.256 23.0452C22.451 22.598 22.7018 22.2364 23.0083 21.9602C23.3218 21.684 23.6701 21.4867 24.0532 21.3684C24.4363 21.25 24.8194 21.1908 25.2026 21.1908C25.5439 21.1908 25.8399 21.2434 26.0907 21.3486C26.3485 21.4473 26.5679 21.5755 26.749 21.7333C26.9301 21.8911 27.0764 22.0687 27.1878 22.266C27.3063 22.4632 27.3968 22.6572 27.4595 22.8479C27.4595 22.7164 27.47 22.5553 27.4909 22.3646C27.5187 22.1739 27.5849 21.9931 27.6894 21.8221C27.7939 21.6445 27.9541 21.4966 28.17 21.3782C28.386 21.2533 28.6855 21.1908 29.0686 21.1908C29.4448 21.1908 29.7374 21.2566 29.9463 21.3881C30.1553 21.513 30.312 21.6807 30.4165 21.8911C30.521 22.1016 30.5837 22.3416 30.6046 22.6112C30.6255 22.8742 30.636 23.1438 30.636 23.42V31.3504ZM25.2026 27.326C25.2026 27.497 25.2095 27.668 25.2235 27.8389C25.2374 28.0099 25.2757 28.1644 25.3384 28.3025C25.4011 28.4341 25.4916 28.5426 25.6101 28.628C25.7355 28.7069 25.9061 28.7464 26.1221 28.7464C26.3937 28.7464 26.6166 28.6642 26.7908 28.4998C26.9649 28.3354 27.1008 28.1349 27.1983 27.8981C27.2958 27.6548 27.362 27.4017 27.3968 27.1386C27.4386 26.869 27.4595 26.629 27.4595 26.4186C27.4525 25.9188 27.4282 25.4848 27.3864 25.1166C27.3515 24.7483 27.2854 24.4458 27.1878 24.2091C27.0903 23.9658 26.9545 23.7883 26.7803 23.6765C26.6132 23.5581 26.3937 23.4989 26.1221 23.4989C25.9061 23.4989 25.7355 23.5417 25.6101 23.6271C25.4916 23.7061 25.4011 23.8146 25.3384 23.9526C25.2757 24.0907 25.2374 24.2453 25.2235 24.4162C25.2095 24.5872 25.2026 24.7615 25.2026 24.939V27.326Z" fill="#FAFBB7"/>
</svg>
