<svg width="1920" height="1080" viewBox="0 0 1920 1080" fill="none" xmlns="http://www.w3.org/2000/svg">
<path d="M1920 0H0.000244141V1080H1920V0Z" fill="#1F2124"/>
<path d="M0.00012207 549.399C134.174 577.246 272.54 636.916 401.267 591.521C537.278 543.556 661.941 435.464 699.605 302.683C736.573 172.357 605.352 53.7233 591.926 -80.6268C577.441 -225.573 699.947 -384.285 618.61 -507.817C538.53 -629.44 356.581 -648.269 206.445 -666.083C71.7521 -682.065 -57.9949 -643.37 -187.02 -603.408C-312.345 -564.593 -459.998 -541.479 -532.577 -437.192C-604.19 -334.294 -524.07 -195.369 -554.411 -75.5167C-589.538 63.2415 -785.153 182.827 -722.373 312.534C-659.555 442.32 -444.645 398.817 -302.223 445.517C-198.857 479.41 -106.848 527.223 0.00012207 549.399Z" fill="#191A1D"/>
<path d="M1920 1977.68C2097.79 1964.48 2140.29 1717.23 2290.96 1626.84C2443.29 1535.45 2723.05 1614.98 2789.35 1456.12C2857.1 1293.8 2591.53 1164.61 2555.33 993.461C2522.36 837.598 2696.71 652.499 2592.93 527.595C2490.64 404.5 2270.93 503.794 2112.13 460.097C1954.04 416.594 1827.84 229.06 1670.08 273.655C1512.16 318.298 1506.8 534.684 1407.5 659.288C1317.33 772.423 1150.28 832.6 1114.85 970.33C1078.78 1110.51 1150.86 1254.38 1221.5 1382.21C1289.39 1505.06 1400.88 1592.09 1509.69 1684.85C1639.61 1795.6 1745.76 1990.61 1920 1977.68Z" fill="#25282B"/>
</svg>
