<svg width="1920" height="335" viewBox="0 0 1920 335" fill="none" xmlns="http://www.w3.org/2000/svg">
<g clip-path="url(#clip0_43_1480)">
<path opacity="0.25" d="M1920 335L1920 205.774C1843.54 143.799 1754.26 115.966 1667.2 127.607C1554.62 142.598 1449.07 220.598 1336.32 232.295C1218.18 244.466 1100.26 185.171 987.2 133.86C876.368 83.6104 765.92 64.4038 652.16 97.3454C594.32 114.095 540.4 147.149 485.04 179.253C336.816 265.208 139.2 374.893 1.28056e-05 188.521L0 335L1920 335Z" fill="#6C63FF"/>
<path opacity="0.5" d="M1920 335L1920 290.864C1899.2 231.932 1875.78 176.266 1843.7 133.86C1760.94 24.3714 1656 25.1251 1560.67 79.3392C1510.83 107.675 1464.53 152.118 1417.2 190.448C1351.73 243.489 1281.63 318.864 1207.87 329.11C1149.86 337.066 1094.43 302.812 1050.11 241.005C999.28 170.124 950.4 67.9213 884.304 37.213C819.6 7.09091 754.144 55.8892 693.696 104.995C633.248 154.1 573.44 213.87 506.624 225.176C411.056 241.507 325.376 161.302 236.384 116.747C188.064 92.5716 141.984 99.5229 97.0401 137.685C61.152 168.086 20.24 212.864 5.23254e-06 275.147L0 335L1920 335Z" fill="#6C63FF"/>
<path d="M1920 335L1920 319.283C1680.11 170.292 1417.46 135.898 1158.67 216.159C1089.87 237.487 1023.9 272.327 954.496 290.026C860.096 314.118 774.528 255.856 689.6 191.201C595.312 119.427 502.4 69.1217 398.08 83.75C259.632 103.292 122.144 211.357 1.26665e-06 320.511L0 335L1920 335Z" fill="#490CAA"/>
</g>
<defs>
<clipPath id="clip0_43_1480">
<rect width="1920" height="335" fill="white" transform="translate(1920 335) rotate(-180)"/>
</clipPath>
</defs>
</svg>
